<svg xmlns="http://www.w3.org/2000/svg" viewBox="0 0 48.36 62.52"><defs><style>.cls-1{fill:#777;}</style></defs><title>icon_seou</title><g id="レイヤー_2" data-name="レイヤー 2"><g id="レイヤー_1-2" data-name="レイヤー 1"><circle class="cls-1" cx="32.61" cy="9.26" r="9.26"/><path class="cls-1" d="M42.77,41.22,36.08,37l-.3-8,10.16,4.92A4,4,0,0,1,48,39.13h0A4,4,0,0,1,42.77,41.22Z"/><path class="cls-1" d="M3.27,53.79,9.41,42,16,47.68l-5.63,9.79A4,4,0,0,1,5,59.18H5A4,4,0,0,1,3.27,53.79Z"/><path class="cls-1" d="M21.45,58.54l.43-11.28,8,0L29.45,58.5a4,4,0,0,1-4,4h0A4,4,0,0,1,21.45,58.54Z"/><path class="cls-1" d="M22.13,48.09,13.07,32.24l4.07-9.62a7,7,0,0,1,9.35-3.23l7.78,3.79Z"/><polygon class="cls-1" points="29.89 47.22 21.85 49.56 17.82 35.72 23.85 35.25 29.89 47.22"/><path class="cls-1" d="M21.75,48.22l-6.27-5.13c-2.13-1.62-5.26-4-3.38-8.67L14,29.91,27.69,36.3Z"/><path class="cls-1" d="M34.14,62.27a1.44,1.44,0,0,1-.49-.08,1.5,1.5,0,0,1-.93-1.9l10.9-31.72a1.5,1.5,0,0,1,2.84,1L35.56,61.26A1.49,1.49,0,0,1,34.14,62.27Z"/><polygon class="cls-1" points="28.48 28.39 36.08 36.95 41.76 31.84 34.33 23.2 28.48 28.39"/><path class="cls-1" d="M9.41,37,2.14,33.56A3.71,3.71,0,0,1,.35,28.62L5.64,17.29a6,6,0,0,1,8-2.9l5.19,2.43L18,18.49Z"/></g></g></svg>