<svg xmlns="http://www.w3.org/2000/svg" viewBox="0 0 47.14 52.85"><defs><style>.cls-1{fill:#777;}</style></defs><title>icon_aruku</title><g id="レイヤー_2" data-name="レイヤー 2"><g id="レイヤー_1-2" data-name="レイヤー 1"><path class="cls-1" d="M7.52,0C2.13-.06-1.15,9.44.37,19.32S4.63,33.84,4.63,33.84L16.49,32a42.14,42.14,0,0,1-.07-7.07s-.31-2,1.06-6.23S16.56-.37,7.52,0Z"/><path class="cls-1" d="M5.09,36.81,17,35s1.68,10.87-4.25,11.78S5.09,36.81,5.09,36.81Z"/><path class="cls-1" d="M39.38,6c5.39-.16,8.82,9.29,7.46,19.19s-4,14.59-4,14.59L30.93,38.12a42.23,42.23,0,0,0,0-7.08s.27-2-1.17-6.21S30.33,5.73,39.38,6Z"/><path class="cls-1" d="M42.4,42.72,30.52,41.09S29,52,35,52.8,42.4,42.72,42.4,42.72Z"/></g></g></svg>