<svg xmlns="http://www.w3.org/2000/svg" viewBox="0 0 55.53 55.53"><defs><style>.cls-1{fill:#777;}</style></defs><title>icon_new</title><g id="レイヤー_2" data-name="レイヤー 2"><g id="レイヤー_1-2" data-name="レイヤー 1"><path class="cls-1" d="M27.77,4A23.77,23.77,0,1,1,4,27.77,23.79,23.79,0,0,1,27.77,4m0-4A27.77,27.77,0,1,0,55.53,27.77,27.77,27.77,0,0,0,27.77,0Z"/><path class="cls-1" d="M11.06,32.7c0-1.54,0-3.36,0-5.08,0-1.5,0-2.93,0-4.05v-.06c0-1.05.59-1.47,1.25-1.47a1.81,1.81,0,0,1,1.47.81c.94,1.5,3.45,6.18,4.59,7.89.09.13.16.21.21.21s.1-.05.1-.64c0-1.4,0-6.08-.09-7.46a.87.87,0,0,1,1.74,0v0c0,1,0,2.5,0,4,0,1.9,0,3.87,0,5.17v0A1.36,1.36,0,0,1,19,33.48a1.53,1.53,0,0,1-1.29-.75c-1.05-1.67-3.86-6.79-4.67-8.16-.06-.09-.16-.28-.24-.28s-.09.15-.09.84c0,1.56.05,6,.09,7.57v0c0,.48-.42.7-.85.7a.78.78,0,0,1-.87-.72Z"/><path class="cls-1" d="M26.48,23.57c-1.5,0-1.82,0-1.86.67,0,.36,0,1.1,0,2,0,.3,0,.3,1.86.3.69,0,1.41,0,1.68,0a.76.76,0,0,1,.84.8.79.79,0,0,1-.8.85H28.1c-.38,0-1-.05-1.52-.05-1.86,0-2,0-2,.33,0,2.24,0,2.58.05,2.84.07.69.31.72,2.43.72.88,0,1.84,0,2.13,0h.07a.76.76,0,0,1,.81.76.87.87,0,0,1-.94.84c-.2,0-1.07,0-1.94,0s-1.72,0-1.92,0C23.88,33.45,23,33,23,31.63c0-.63,0-1.74,0-2.95,0-1.83,0-3.87,0-4.81A1.87,1.87,0,0,1,25,22c.27,0,1.12,0,2,0s1.68,0,1.91,0a.8.8,0,0,1,.84.79.83.83,0,0,1-.89.81Z"/><path class="cls-1" d="M40.75,33.43c-.67,0-1.35-.49-1.61-1.59-.4-1.59-1.17-6.22-1.34-7.48,0-.19-.07-.27-.12-.27s-.09.11-.12.27c-.2,1.37-.91,5.63-1.4,7.47a1.85,1.85,0,0,1-1.72,1.6,1.75,1.75,0,0,1-1.66-1.59c-1.61-7.58-1.82-8.72-1.82-9a.84.84,0,0,1,.92-.8.86.86,0,0,1,.9.66c1.5,8.62,1.53,8.71,1.74,8.71s.22-.16.26-.38c.29-1.25,1.1-5.79,1.49-7.79a1.35,1.35,0,0,1,1.38-1.17,1.45,1.45,0,0,1,1.46,1.11c.33,1.71,1.08,6,1.39,7.77,0,.25.12.34.19.34s.3,0,2-8.6a.81.81,0,0,1,.84-.65.87.87,0,0,1,.94.78c0,.29-.79,3.86-2,9.08A1.81,1.81,0,0,1,40.75,33.43Z"/></g></g></svg>