<svg xmlns="http://www.w3.org/2000/svg" viewBox="0 0 60 48.22"><defs><style>.cls-1{fill:#777;}.cls-2{fill:#fff;}</style></defs><title>icon_sumu</title><g id="レイヤー_2" data-name="レイヤー 2"><g id="レイヤー_1-2" data-name="レイヤー 1"><path class="cls-1" d="M58.12,44H55.38L32.25,6.55,34.38,3.1A2.08,2.08,0,0,0,33.84.33,1.8,1.8,0,0,0,31.25.9L30,2.92,28.75.9A1.8,1.8,0,0,0,26.16.33a2.08,2.08,0,0,0-.54,2.77l2.13,3.45L4.62,44H1.88a2,2,0,0,0,0,4H21.71l7.41-11.21a1.57,1.57,0,0,1,2.72,0L39.24,48H58.12a2,2,0,0,0,0-4Z"/><polygon class="cls-2" points="21.58 48.22 39.38 48.22 39.24 48 21.71 48 21.58 48.22"/></g></g></svg>