<svg xmlns="http://www.w3.org/2000/svg" viewBox="0 0 57.37 59.07"><defs><style>.cls-1{fill:#777;}</style></defs><title>navi_icon_01_1</title><g id="レイヤー_2" data-name="レイヤー 2"><g id="レイヤー_1-2" data-name="レイヤー 1"><rect class="cls-1" x="9.21" y="16" width="40" height="3" rx="1.5" ry="1.5"/><rect class="cls-1" x="9.21" width="40" height="3" rx="1.5" ry="1.5"/><rect class="cls-1" x="9.21" y="30.5" width="40" height="3" rx="1.5" ry="1.5"/><path class="cls-1" d="M10.38,47.52a4.92,4.92,0,0,0-.48,1,23.44,23.44,0,0,1-2.18,4.35,34.31,34.31,0,0,1,3.42,3.22l-1,1.1a21.18,21.18,0,0,0-3.19-3.23,17.73,17.73,0,0,1-2.52,2.73A18.11,18.11,0,0,1,.93,59.07,3.54,3.54,0,0,0,0,58a15.75,15.75,0,0,0,5.92-4.9,29.16,29.16,0,0,0-4-2.7l.9-.95A40.72,40.72,0,0,1,6.66,52a21.86,21.86,0,0,0,1.72-3.42A7.39,7.39,0,0,0,8.91,47Z"/><path class="cls-1" d="M15,55.86A13.41,13.41,0,0,0,17,56H25.2a11,11,0,0,0,2-.1v1.48a16.8,16.8,0,0,0-1.95-.07H17a16.52,16.52,0,0,0-1.92.07Zm1.52-7.17a9.91,9.91,0,0,0,1.83.1h5.46a9.43,9.43,0,0,0,1.8-.1v1.47a13.78,13.78,0,0,0-1.79-.08H18.38a13.81,13.81,0,0,0-1.82.08Z"/><path class="cls-1" d="M39.7,57.67a6.84,6.84,0,0,0,1.46-.09v1.28a9.14,9.14,0,0,0-1.46-.08H32.42a9.26,9.26,0,0,0-1.48.08V57.58a7,7,0,0,0,1.48.09h4.4c.32-1.48.66-3.69.8-5.05H33.79a9.73,9.73,0,0,0-1.42.06V51.43a9.29,9.29,0,0,0,1.45.09h3.86a2.1,2.1,0,0,0,.82-.1l.59.51a3.15,3.15,0,0,0-.29,1.23c-.33,2.32-.45,3-.73,4.51Z"/><path class="cls-1" d="M44.85,52.26a16.31,16.31,0,0,0,2.07.09h8.43a12.77,12.77,0,0,0,2-.09v1.48a17.73,17.73,0,0,0-2-.07H46.94a16.79,16.79,0,0,0-2.09.07Z"/></g></g></svg>